<?xml version="1.0" encoding="utf-8" standalone="yes"?><svg xmlns="http://www.w3.org/2000/svg" xmlns:xlink="http://www.w3.org/1999/xlink" version="1.1" width="816" height="1056"><!--Generated by Aspose.Words for .NET 18.5--><defs><clipPath id="clip1"><path d="M-1,-1 L301,-1 L301,118 L-1,118 Z" clip-rule="evenodd"></path></clipPath><clipPath id="clip10"><path d="M-1,-1 L190.149993896,-1 L190.149993896,66.441001892 L-1,66.441001892 Z" clip-rule="evenodd"></path></clipPath><clipPath id="clip11"><path d="M-1,-1 L204,-1 L204,642.382019043 L-1,642.382019043 Z" clip-rule="evenodd"></path></clipPath><clipPath id="clip12"><path d="M-1,-1 L14.350000381,-1 L14.350000381,71.441001892 L-1,71.441001892 Z" clip-rule="evenodd"></path></clipPath><clipPath id="clip13"><path d="M-1,-1 L190.149993896,-1 L190.149993896,71.441001892 L-1,71.441001892 Z" clip-rule="evenodd"></path></clipPath><clipPath id="clip14"><path d="M-1,-1 L204,-1 L204,642.382019043 L-1,642.382019043 Z" clip-rule="evenodd"></path></clipPath><clipPath id="clip2"><path d="M-1,-1 L204,-1 L204,118 L-1,118 Z" clip-rule="evenodd"></path></clipPath><clipPath id="clip3"><path d="M-1,-1 L14,-1 L14,66.441001892 L-1,66.441001892 Z" clip-rule="evenodd"></path></clipPath><clipPath id="clip4"><path d="M-1,-1 L288,-1 L288,66.441001892 L-1,66.441001892 Z" clip-rule="evenodd"></path></clipPath><clipPath id="clip5"><path d="M-1,-1 L301,-1 L301,642.382019043 L-1,642.382019043 Z" clip-rule="evenodd"></path></clipPath><clipPath id="clip6"><path d="M-1,-1 L14,-1 L14,71.441001892 L-1,71.441001892 Z" clip-rule="evenodd"></path></clipPath><clipPath id="clip7"><path d="M-1,-1 L288,-1 L288,71.441001892 L-1,71.441001892 Z" clip-rule="evenodd"></path></clipPath><clipPath id="clip8"><path d="M-1,-1 L301,-1 L301,642.382019043 L-1,642.382019043 Z" clip-rule="evenodd"></path></clipPath><clipPath id="clip9"><path d="M-1,-1 L14.350000381,-1 L14.350000381,66.441001892 L-1,66.441001892 Z" clip-rule="evenodd"></path></clipPath><style type="text/css">svg{background:white}@font-face{font-family:'Century Gothic';font-weight:normal;font-style:normal;src:local('Century Gothic'),url('https://content.livecareer.com/zty/fonts/CenturyGothic.ttf') format('truetype')}@font-face{font-family:'Century Gothic';font-weight:bold;font-style:normal;src:local('Century Gothic Bold'),url('https://content.livecareer.com/zty/fonts/CenturyGothicBold.ttf') format('truetype')}@font-face{font-family:'Century Gothic';font-weight:bold;font-style:italic;src:local('Century Gothic Bold Italic'),url('https://content.livecareer.com/zty/fonts/CenturyGothicBoldItalic.ttf') format('truetype')}@font-face{font-family:'Century Gothic';font-weight:normal;font-style:italic;src:local('Century Gothic Italic'),url('https://content.livecareer.com/zty/fonts/CenturyGothicItalic.ttf') format('truetype')}</style></defs><g transform="scale(1.33333)"><g><path d="M0,0 L37,0 L37,117 L0,117 Z" fill="#f9fbfc" fill-rule="evenodd"></path><path d="M37,0 L337,0 L337,117 L37,117 Z" fill="#f9fbfc" fill-rule="evenodd"></path><g transform="matrix(1,0,0,1,37,0)" clip-path="url(#clip1)"><g transform="matrix(1,0,0,1,0,25)"><text><tspan x="0" y="22.035999298" font-family="Century Gothic" font-weight="bold" font-style="normal" font-size="18" fill="#4a4a4a">JESSICA CLAIRE</tspan></text></g><g transform="matrix(1,0,0,1,0,51)"><text><tspan x="0" y="32.577999115" font-family="Century Gothic" font-weight="normal" font-style="normal" font-size="11" fill="#4a4a4a"> </tspan></text></g></g><path d="M337,0 L372,0 L372,117 L337,117 Z" fill="#f9fbfc" fill-rule="evenodd"></path><path d="M372,0 L575,0 L575,117 L372,117 Z" fill="#f9fbfc" fill-rule="evenodd"></path><g transform="matrix(1,0,0,1,372,0)" clip-path="url(#clip2)"><g transform="matrix(1,0,0,1,0,25)"><text><tspan x="0" y="16.577999115" font-family="Century Gothic" font-weight="bold" font-style="normal" font-size="11" fill="#4a4a4a">E:  </tspan><tspan x="14.954000473" y="16.577999115" font-family="Century Gothic" font-weight="normal" font-style="normal" font-size="11" fill="#4a4a4a">resumesample@example.com</tspan><tspan x="0" y="35.577999115" font-family="Century Gothic" font-weight="bold" font-style="normal" font-size="11" fill="#4a4a4a">P:  </tspan><tspan x="15.394000053" y="35.577999115" font-family="Century Gothic" font-weight="normal" font-style="normal" font-size="11" fill="#4a4a4a">(555)432-1000</tspan><tspan x="0" y="54.577999115" font-family="Century Gothic" font-weight="bold" font-style="normal" font-size="11" fill="#4a4a4a">A:  </tspan><tspan x="17.37100029" y="54.577999115" font-family="Century Gothic" font-weight="normal" font-style="normal" font-size="11" fill="#4a4a4a"> San Francisco, CA 94105</tspan></text></g><g transform="matrix(1,0,0,1,0,82)"><text><tspan x="0" y="32.577999115" font-family="Century Gothic" font-weight="normal" font-style="normal" font-size="11" fill="#4a4a4a"> </tspan></text></g></g><path d="M575,0 L612,0 L612,117 L575,117 Z" fill="#f9fbfc" fill-rule="evenodd"></path><g transform="matrix(1,0,0,1,37,117)"><g transform="matrix(1,0,0,1,0.25,0.25)"><g transform="matrix(1,0,0,1,0,0)" clip-path="url(#clip3)"><g transform="matrix(1,0,0,1,0.25,28.25)"><text><tspan x="-0.5" y="18.673000336" font-family="Times New Roman" font-weight="bold" font-style="normal" font-size="13.5" fill="#b8b8b8">❘</tspan></text></g></g><g transform="matrix(1,0,0,1,13,0)" clip-path="url(#clip4)"><g transform="matrix(1,0,0,1,0.25,28.25)"><text><tspan x="0" y="17.86300087" font-family="Century Gothic" font-weight="bold" font-style="normal" font-size="15" fill="#4a4a4a">PROFESSIONAL SUMMARY</tspan></text></g></g></g><g transform="matrix(1,0,0,1,0,0)" clip-path="url(#clip5)"><g transform="matrix(1,0,0,1,0.25,65.691001892)"><text><tspan x="0" y="16.577999115" font-family="Century Gothic" font-weight="normal" font-style="normal" font-size="11" fill="#4a4a4a">Highly motivated Sales Associate with extensive </tspan><tspan x="0" y="35.577999115" font-family="Century Gothic" font-weight="normal" font-style="normal" font-size="11" fill="#4a4a4a">customer service and sales experience. Outgoing sales </tspan><tspan x="0" y="54.577999115" font-family="Century Gothic" font-weight="normal" font-style="normal" font-size="11" fill="#4a4a4a">professional with track record of driving increased sales, </tspan><tspan x="0" y="73.57800293" font-family="Century Gothic" font-weight="normal" font-style="normal" font-size="11" fill="#4a4a4a">improving buying experience and elevating company </tspan><tspan x="0" y="92.57800293" font-family="Century Gothic" font-weight="normal" font-style="normal" font-size="11" fill="#4a4a4a">profile with target market.</tspan></text></g></g><g transform="matrix(1,0,0,1,0.25,160.690994263)"><g transform="matrix(1,0,0,1,0,0)" clip-path="url(#clip6)"><g transform="matrix(1,0,0,1,0.25,33.25)"><text><tspan x="-0.5" y="18.673000336" font-family="Times New Roman" font-weight="bold" font-style="normal" font-size="13.5" fill="#b8b8b8">❘</tspan></text></g></g><g transform="matrix(1,0,0,1,13,0)" clip-path="url(#clip7)"><g transform="matrix(1,0,0,1,0.25,33.25)"><text><tspan x="0" y="17.86300087" font-family="Century Gothic" font-weight="bold" font-style="normal" font-size="15" fill="#4a4a4a">WORK HISTORY</tspan></text></g></g></g><g transform="matrix(1,0,0,1,0,0)" clip-path="url(#clip8)"><g transform="matrix(1,0,0,1,0.25,231.132003784)"><text><tspan x="0" y="16.577999115" font-family="Century Gothic" font-weight="bold" font-style="normal" font-size="11" fill="#4a4a4a">Bed Bath &amp; Beyond, Inc.</tspan><tspan x="127.602996826" y="16.577999115" font-family="Century Gothic" font-weight="normal" font-style="normal" font-size="11" fill="#4a4a4a"> - </tspan><tspan x="137.345001221" y="16.577999115" font-family="Century Gothic" font-weight="bold" font-style="italic" font-size="11" fill="#4a4a4a">Senior Sales Associate</tspan><tspan x="255.697998047" y="16.577999115" font-family="Century Gothic" font-weight="normal" font-style="normal" font-size="11" fill="#4a4a4a"> </tspan><tspan x="0" y="35.577999115" font-family="Century Gothic" font-weight="normal" font-style="normal" font-size="11" fill="#4a4a4a">San Francisco, CA </tspan><tspan x="99.73400116" y="35.577999115" font-family="Century Gothic" font-weight="normal" font-style="normal" font-size="9" fill="#4a4a4a">•</tspan><tspan x="105.18800354" y="35.577999115" font-family="Century Gothic" font-weight="normal" font-style="normal" font-size="11" fill="#4a4a4a"> 03/2015 - Current </tspan></text></g><g transform="matrix(1,0,0,1,3.200000048,269.131988525)"><text><tspan x="-0.5" y="21.827999115" font-family="Times New Roman" font-weight="normal" font-style="normal" font-size="8.25" fill="#4a4a4a">●</tspan><tspan x="10.050000191" y="22.577999115" font-family="Century Gothic" font-weight="normal" font-style="normal" font-size="11" fill="#4a4a4a">Applied security and loss prevention training toward </tspan><tspan x="10.050000191" y="41.577999115" font-family="Century Gothic" font-weight="normal" font-style="normal" font-size="11" fill="#4a4a4a">recognizing risks and reducing store theft</tspan></text></g><g transform="matrix(1,0,0,1,3.200000048,313.131988525)"><text><tspan x="-0.5" y="15.827999115" font-family="Times New Roman" font-weight="normal" font-style="normal" font-size="8.25" fill="#4a4a4a">●</tspan><tspan x="10.050000191" y="16.577999115" font-family="Century Gothic" font-weight="normal" font-style="normal" font-size="11" fill="#4a4a4a">Trained and developed sales team associates in </tspan><tspan x="10.050000191" y="35.577999115" font-family="Century Gothic" font-weight="normal" font-style="normal" font-size="11" fill="#4a4a4a">products, selling techniques and procedures</tspan></text></g><g transform="matrix(1,0,0,1,3.200000048,351.131988525)"><text><tspan x="-0.5" y="15.827999115" font-family="Times New Roman" font-weight="normal" font-style="normal" font-size="8.25" fill="#4a4a4a">●</tspan><tspan x="10.050000191" y="16.577999115" font-family="Century Gothic" font-weight="normal" font-style="normal" font-size="11" fill="#4a4a4a">Maintained organized, presentable merchandise to </tspan><tspan x="10.050000191" y="35.577999115" font-family="Century Gothic" font-weight="normal" font-style="normal" font-size="11" fill="#4a4a4a">drive continuous sales</tspan></text></g><g transform="matrix(1,0,0,1,3.200000048,389.131988525)"><text><tspan x="-0.5" y="15.827999115" font-family="Times New Roman" font-weight="normal" font-style="normal" font-size="8.25" fill="#4a4a4a">●</tspan><tspan x="10.050000191" y="16.577999115" font-family="Century Gothic" font-weight="normal" font-style="normal" font-size="11" fill="#4a4a4a">Implemented up-selling strategies for recommending </tspan><tspan x="10.050000191" y="35.577999115" font-family="Century Gothic" font-weight="normal" font-style="normal" font-size="11" fill="#4a4a4a">accessories and complementary purchases</tspan></text></g><g transform="matrix(1,0,0,1,0.25,427.131988525)"><text><tspan x="0" y="34.577999115" font-family="Century Gothic" font-weight="bold" font-style="normal" font-size="11" fill="#4a4a4a">Target</tspan><tspan x="33" y="34.577999115" font-family="Century Gothic" font-weight="normal" font-style="normal" font-size="11" fill="#4a4a4a"> - </tspan><tspan x="42.74200058" y="34.577999115" font-family="Century Gothic" font-weight="bold" font-style="italic" font-size="11" fill="#4a4a4a">Sales Associate</tspan><tspan x="125.457000732" y="34.577999115" font-family="Century Gothic" font-weight="normal" font-style="normal" font-size="11" fill="#4a4a4a"> </tspan><tspan x="0" y="53.577999115" font-family="Century Gothic" font-weight="normal" font-style="normal" font-size="11" fill="#4a4a4a">San Francisco, CA </tspan><tspan x="99.73400116" y="53.577999115" font-family="Century Gothic" font-weight="normal" font-style="normal" font-size="9" fill="#4a4a4a">•</tspan><tspan x="105.18800354" y="53.577999115" font-family="Century Gothic" font-weight="normal" font-style="normal" font-size="11" fill="#4a4a4a"> 06/2013 - 03/2015 </tspan></text></g><g transform="matrix(1,0,0,1,3.200000048,483.131988525)"><text><tspan x="-0.5" y="21.827999115" font-family="Times New Roman" font-weight="normal" font-style="normal" font-size="8.25" fill="#4a4a4a">●</tspan><tspan x="10.050000191" y="22.577999115" font-family="Century Gothic" font-weight="normal" font-style="normal" font-size="11" fill="#4a4a4a">Maintained organized, presentable merchandise to </tspan><tspan x="10.050000191" y="41.577999115" font-family="Century Gothic" font-weight="normal" font-style="normal" font-size="11" fill="#4a4a4a">drive continuous sales</tspan></text></g><g transform="matrix(1,0,0,1,3.200000048,527.132019043)"><text><tspan x="-0.5" y="15.827999115" font-family="Times New Roman" font-weight="normal" font-style="normal" font-size="8.25" fill="#4a4a4a">●</tspan><tspan x="10.050000191" y="16.577999115" font-family="Century Gothic" font-weight="normal" font-style="normal" font-size="11" fill="#4a4a4a">Organized racks and shelves to maintain store visual </tspan><tspan x="10.050000191" y="35.577999115" font-family="Century Gothic" font-weight="normal" font-style="normal" font-size="11" fill="#4a4a4a">appeal, engage customers and promote </tspan><tspan x="10.050000191" y="54.577999115" font-family="Century Gothic" font-weight="normal" font-style="normal" font-size="11" fill="#4a4a4a">merchandise</tspan></text></g><g transform="matrix(1,0,0,1,3.200000048,584.132019043)"><text><tspan x="-0.5" y="15.827999115" font-family="Times New Roman" font-weight="normal" font-style="normal" font-size="8.25" fill="#4a4a4a">●</tspan><tspan x="10.050000191" y="16.577999115" font-family="Century Gothic" font-weight="normal" font-style="normal" font-size="11" fill="#4a4a4a">Evaluated inventory and delivery needs, optimizing </tspan><tspan x="10.050000191" y="35.577999115" font-family="Century Gothic" font-weight="normal" font-style="normal" font-size="11" fill="#4a4a4a">strategies to meet customer demands</tspan></text></g><g transform="matrix(1,0,0,1,3.200000048,622.132019043)"><text><tspan x="-0.5" y="15.827999115" font-family="Times New Roman" font-weight="normal" font-style="normal" font-size="8.25" fill="#4a4a4a">●</tspan><tspan x="10.050000191" y="16.577999115" font-family="Century Gothic" font-weight="normal" font-style="normal" font-size="11" fill="#4a4a4a">Analyzed and processed returns, assisting customers </tspan></text></g></g><g transform="matrix(1,0,0,1,335.25,0.25)"><g transform="matrix(1,0,0,1,0,0)" clip-path="url(#clip9)"><g transform="matrix(1,0,0,1,0.25,28.25)"><text><tspan x="-0.5" y="18.673000336" font-family="Times New Roman" font-weight="bold" font-style="normal" font-size="13.5" fill="#b8b8b8">❘</tspan></text></g></g><g transform="matrix(1,0,0,1,13.350000381,0)" clip-path="url(#clip10)"><g transform="matrix(1,0,0,1,0.25,28.25)"><text><tspan x="0" y="17.86300087" font-family="Century Gothic" font-weight="bold" font-style="normal" font-size="15" fill="#4a4a4a">SKILLS</tspan></text></g></g></g><g transform="matrix(1,0,0,1,335,0)" clip-path="url(#clip11)"><g transform="matrix(1,0,0,1,3.200000048,65.691001892)"><text><tspan x="-0.5" y="15.827999115" font-family="Times New Roman" font-weight="normal" font-style="normal" font-size="8.25" fill="#4a4a4a">●</tspan><tspan x="10.050000191" y="16.577999115" font-family="Century Gothic" font-weight="normal" font-style="normal" font-size="11" fill="#4a4a4a">Guest services</tspan></text></g><g transform="matrix(1,0,0,1,3.200000048,84.691001892)"><text><tspan x="-0.5" y="15.827999115" font-family="Times New Roman" font-weight="normal" font-style="normal" font-size="8.25" fill="#4a4a4a">●</tspan><tspan x="10.050000191" y="16.577999115" font-family="Century Gothic" font-weight="normal" font-style="normal" font-size="11" fill="#4a4a4a">Inventory control procedures</tspan></text></g><g transform="matrix(1,0,0,1,3.200000048,103.691001892)"><text><tspan x="-0.5" y="15.827999115" font-family="Times New Roman" font-weight="normal" font-style="normal" font-size="8.25" fill="#4a4a4a">●</tspan><tspan x="10.050000191" y="16.577999115" font-family="Century Gothic" font-weight="normal" font-style="normal" font-size="11" fill="#4a4a4a">Merchandising expertise</tspan></text></g><g transform="matrix(1,0,0,1,3.200000048,122.691001892)"><text><tspan x="-0.5" y="15.827999115" font-family="Times New Roman" font-weight="normal" font-style="normal" font-size="8.25" fill="#4a4a4a">●</tspan><tspan x="10.050000191" y="16.577999115" font-family="Century Gothic" font-weight="normal" font-style="normal" font-size="11" fill="#4a4a4a">Loss prevention</tspan></text></g><g transform="matrix(1,0,0,1,3.200000048,141.690994263)"><text><tspan x="-0.5" y="15.827999115" font-family="Times New Roman" font-weight="normal" font-style="normal" font-size="8.25" fill="#4a4a4a">●</tspan><tspan x="10.050000191" y="16.577999115" font-family="Century Gothic" font-weight="normal" font-style="normal" font-size="11" fill="#4a4a4a">Cash register operations</tspan></text></g><g transform="matrix(1,0,0,1,3.200000048,160.690994263)"><text><tspan x="-0.5" y="15.827999115" font-family="Times New Roman" font-weight="normal" font-style="normal" font-size="8.25" fill="#4a4a4a">●</tspan><tspan x="10.050000191" y="16.577999115" font-family="Century Gothic" font-weight="normal" font-style="normal" font-size="11" fill="#4a4a4a">Product promotions</tspan></text></g></g><g transform="matrix(1,0,0,1,335.25,179.690994263)"><g transform="matrix(1,0,0,1,0,0)" clip-path="url(#clip12)"><g transform="matrix(1,0,0,1,0.25,33.25)"><text><tspan x="-0.5" y="18.673000336" font-family="Times New Roman" font-weight="bold" font-style="normal" font-size="13.5" fill="#b8b8b8">❘</tspan></text></g></g><g transform="matrix(1,0,0,1,13.350000381,0)" clip-path="url(#clip13)"><g transform="matrix(1,0,0,1,0.25,33.25)"><text><tspan x="0" y="17.86300087" font-family="Century Gothic" font-weight="bold" font-style="normal" font-size="15" fill="#4a4a4a">EDUCATION</tspan></text></g></g></g><g transform="matrix(1,0,0,1,335,0)" clip-path="url(#clip14)"><g transform="matrix(1,0,0,1,0.25,250.132003784)"><text><tspan x="0" y="16.577999115" font-family="Century Gothic" font-weight="bold" font-style="normal" font-size="11" fill="#4a4a4a">San Francisco State University</tspan><tspan x="156.852996826" y="16.577999115" font-family="Century Gothic" font-weight="normal" font-style="normal" font-size="11" fill="#4a4a4a"> </tspan></text></g><g transform="matrix(1,0,0,1,0.25,269.131988525)"><text><tspan x="0" y="16.577999115" font-family="Century Gothic" font-weight="normal" font-style="normal" font-size="11" fill="#4a4a4a">San Francisco, CA </tspan><tspan x="99.73400116" y="16.577999115" font-family="Century Gothic" font-weight="normal" font-style="normal" font-size="9" fill="#4a4a4a">•</tspan><tspan x="105.18800354" y="16.577999115" font-family="Century Gothic" font-weight="normal" font-style="normal" font-size="11" fill="#4a4a4a"> 2013</tspan></text></g><g transform="matrix(1,0,0,1,0.25,288.131988525)"><text><tspan x="0" y="21.577999115" font-family="Century Gothic" font-weight="bold" font-style="italic" font-size="11" fill="#4a4a4a">Bachelor of Arts</tspan><tspan x="83.589996338" y="21.577999115" font-family="Century Gothic" font-weight="normal" font-style="normal" font-size="11" fill="#4a4a4a">: Business </tspan><tspan x="0" y="40.577999115" font-family="Century Gothic" font-weight="normal" font-style="normal" font-size="11" fill="#4a4a4a">Administration </tspan></text></g></g></g></g></g></svg>